<svg xmlns="http://www.w3.org/2000/svg" width="800" viewBox="0 0 600 600" height="800" version="1.0"><defs><clipPath id="prefix__a"><path d="M157 159.707h275.984v206.25H157zm0 0"/></clipPath><clipPath id="prefix__b"><path d="M284 244h148.984v85H284zm0 0"/></clipPath><clipPath id="prefix__c"><path d="M157.184 257.691h180.12v108.262h-180.12zm0 0"/></clipPath></defs><g clip-path="url(#prefix__a)"><path fill="#d9d9d9" d="M168.172 167.273a3.426 3.426 0 00-3.422 3.422v184.27a3.426 3.426 0 003.422 3.422h253.61a3.423 3.423 0 003.421-3.422v-184.27a3.423 3.423 0 00-3.422-3.422zm253.61 198.68h-253.61c-6.059 0-10.988-4.93-10.988-10.988v-184.27c0-6.058 4.93-10.988 10.988-10.988h253.61c6.058 0 10.988 4.93 10.988 10.988v184.27c0 6.058-4.93 10.988-10.989 10.988"/></g><g clip-path="url(#prefix__b)"><path fill="#d9d9d9" d="M428.988 328.89a3.786 3.786 0 01-2.71-1.14l-72.298-74.168-63.437 65.078a3.782 3.782 0 01-5.418-5.277l66.148-67.86a3.78 3.78 0 015.418 0l75.004 76.946a3.785 3.785 0 01-.066 5.347 3.767 3.767 0 01-2.64 1.075"/></g><g clip-path="url(#prefix__c)"><path fill="#d9d9d9" d="M333.422 365.953a3.764 3.764 0 01-2.692-1.125l-45.59-46.148-51.152-51.782-70.312 72.133a3.778 3.778 0 01-5.348.067 3.782 3.782 0 01-.07-5.348l73.008-74.895a3.781 3.781 0 012.695-1.14h.012c1.011 0 1.98.406 2.691 1.125l53.86 54.523 45.59 46.149a3.782 3.782 0 01-.036 5.347 3.76 3.76 0 01-2.656 1.094"/></g><path fill="#d9d9d9" d="M272.309 200.668c-9.79 0-17.754 7.965-17.754 17.754 0 9.789 7.965 17.754 17.754 17.754 9.789 0 17.753-7.965 17.753-17.754 0-9.79-7.964-17.754-17.753-17.754zm0 43.074c-13.961 0-25.32-11.36-25.32-25.32 0-13.961 11.359-25.32 25.32-25.32 13.96 0 25.32 11.359 25.32 25.32 0 13.96-11.36 25.32-25.32 25.32"/><path d="M103.986 433.581c-.73-.054-1.313-.164-1.75-.328a1.64 1.64 0 01-.938-.812c-.199-.387-.336-.938-.406-1.657a92.242 92.242 0 01-.312-4.297 26.069 26.069 0 01.14-4.343c.114-.977.188-1.957.219-2.938.04-.988.117-1.972.234-2.953.07-.656.188-1.156.344-1.5a1.65 1.65 0 01.797-.797c.363-.176.852-.32 1.469-.437a14.3 14.3 0 012.719-.297c.914-.008 1.832-.031 2.75-.063h3.78c.49 0 .895.133 1.22.391.332.262.5.656.5 1.187.02.45-.133.805-.454 1.063-.324.25-.687.39-1.093.422-.907.043-1.82.07-2.735.078a123.1 123.1 0 00-2.703.062h-.937c-.325 0-.641.012-.953.032-.543.043-.946.101-1.204.172a.711.711 0 00-.5.468c-.074.23-.117.621-.125 1.172a265.86 265.86 0 00-.093 2.235c-.024.53.007.921.093 1.171a.663.663 0 00.516.438c.25.043.613.059 1.094.047.476-.02 1.113-.024 1.906-.016.426.024.852.028 1.281.016.438-.02.875-.016 1.313.015 1.351.063 2 .579 1.937 1.547-.023.649-.242 1.047-.656 1.203a3.817 3.817 0 01-1.375.235c-.762.023-1.543.039-2.344.047a52.7 52.7 0 01-2.36-.016c-.523-.02-.929.078-1.218.297-.293.219-.43.61-.406 1.172 0 .305-.031.61-.094.922 0 .742.02 1.32.063 1.734.039.406.156.695.343.86.188.167.489.257.907.265.425.012 1.015-.02 1.765-.094.696-.07 1.395-.144 2.094-.218.707-.082 1.414-.16 2.125-.235 1.32-.07 2.031.371 2.125 1.328.102 1.051-.492 1.645-1.781 1.782-1.2.125-2.414.265-3.64.421a24.436 24.436 0 01-3.657.22zm18.654-.812c-3.649-.094-5.782-1.88-6.407-5.36a2.492 2.492 0 010-1.172c.102-.363.38-.628.828-.796.446-.207.829-.22 1.141-.032.32.188.586.48.797.875.094.188.187.399.281.625.094.22.176.434.25.641a3.761 3.761 0 001.219 1.406 4.771 4.771 0 001.781.766 4.702 4.702 0 001.953 0 3.858 3.858 0 001.703-.813c.352-.3.547-.632.579-1 .03-.363-.07-.738-.297-1.125-.305-.539-.7-.96-1.188-1.265a6.392 6.392 0 00-1.656-.703 69.46 69.46 0 01-2.047-.532 29.522 29.522 0 01-2.016-.625c-1.167-.406-2.093-1.035-2.78-1.89-.68-.852-.981-1.782-.907-2.782.07-1.164.363-2.195.875-3.093.52-.907 1.352-1.617 2.5-2.14 1.395-.602 2.742-.829 4.047-.673 1.3.149 2.46.633 3.484 1.453 1.031.813 1.801 1.914 2.313 3.297.238.73.312 1.305.218 1.719-.093.418-.386.73-.875.937-.605.2-1.07.153-1.39-.14a3.605 3.605 0 01-.781-1.156 6.907 6.907 0 00-.25-.657 3.008 3.008 0 00-.36-.593c-.418-.657-.945-1.133-1.578-1.438a3.669 3.669 0 00-2-.375c-.7.055-1.355.305-1.969.75-.773.543-1.132 1.281-1.078 2.219.04.46.196.812.469 1.062.27.25.613.446 1.031.578.633.211 1.274.403 1.922.579.645.18 1.297.34 1.953.484 2.008.492 3.578 1.61 4.703 3.36.551.792.828 1.636.828 2.53a4.61 4.61 0 01-.703 2.47c-.46.761-1.125 1.355-2 1.78-.562.27-1.25.477-2.062.626a13.62 13.62 0 01-2.531.203zm14.95-.985c-2.106-.664-3.73-1.707-4.875-3.125-1.149-1.414-1.7-3.222-1.656-5.422.132-1.238.398-2.457.797-3.656.406-1.195 1.02-2.3 1.843-3.312.832-1.02 1.942-1.88 3.328-2.578a6.718 6.718 0 012.86-.688 7.215 7.215 0 012.844.547c.914.375 1.71.922 2.39 1.64.688.712 1.18 1.563 1.485 2.563a5 5 0 01.156.938c.031.312.047.632.047.953a1.64 1.64 0 01-.375.984c-.22.262-.516.406-.891.438-.418.062-.781-.008-1.094-.22-.304-.206-.476-.515-.515-.921-.075-.719-.293-1.344-.657-1.875a5.283 5.283 0 00-1.406-1.422c-.969-.695-1.992-.82-3.062-.375a7.082 7.082 0 00-2.063 1.453 9.353 9.353 0 00-1.578 2.156 9.16 9.16 0 00-.906 2.5c-.168.868-.164 1.696.015 2.485a4.12 4.12 0 00.891 1.953 5.755 5.755 0 001.688 1.406 5.52 5.52 0 002.109.64 4.337 4.337 0 002.125-.312 9.585 9.585 0 001.734-.953 8.188 8.188 0 001.532-1.36c.28-.331.609-.53.984-.593.375-.07.738.055 1.094.375.414.336.609.695.578 1.078-.024.375-.164.778-.422 1.203-.438.637-1.024 1.22-1.75 1.75-.719.524-1.508.95-2.36 1.282a10.44 10.44 0 01-2.562.625c-.855.093-1.633.039-2.328-.157zm13.666-1.781c-.98-.82-1.75-1.851-2.313-3.094-.562-1.238-.836-2.5-.812-3.78-.055-.915.086-1.845.422-2.782.343-.945.836-1.844 1.484-2.688a9.571 9.571 0 012.297-2.156 8.865 8.865 0 012.937-1.281c1.063-.258 2.165-.274 3.313-.047.77.148 1.445.422 2.031.828.582.406 1.051.965 1.406 1.672.801 1.523 1.27 3.086 1.407 4.687.133 1.594-.055 3.118-.563 4.563a10.307 10.307 0 01-2.422 3.828c-.96.961-1.992 1.563-3.093 1.813a6.476 6.476 0 01-3.235-.094 7.964 7.964 0 01-2.86-1.469zm.234-8.656a5.596 5.596 0 00-.219 2.437 6.37 6.37 0 00.766 2.36c.406.73.938 1.324 1.594 1.781 1.613 1.105 3.172.965 4.672-.422.82-.758 1.367-1.61 1.64-2.547.282-.937.473-1.863.578-2.781 0-.676-.085-1.281-.25-1.813a20.359 20.359 0 00-.562-1.578c-.281-.707-.695-1.175-1.234-1.406-.532-.238-1.137-.344-1.813-.312-.68.043-1.375.273-2.094.687a7.525 7.525 0 00-1.937 1.578c-.563.637-.945 1.309-1.14 2.016zm16.812 11c-.918-.024-1.637-.137-2.156-.344a1.94 1.94 0 01-1.094-1.078c-.219-.52-.34-1.234-.36-2.14a532.827 532.827 0 00-.109-6.563 50.49 50.49 0 01.313-6.64l.094-.688c.03-.239.07-.469.125-.688.062-.394.222-.703.484-.922.258-.218.586-.304.984-.265.438.023.766.156.985.406.226.25.351.562.375.937.007.532.004 1.055-.016 1.563a83.796 83.796 0 01-.14 3.438c-.032.636-.06 1.273-.079 1.906h.11c0 1.031.004 2.078.015 3.14.008 1.063.004 2.141-.015 3.235-.012.574.109.996.359 1.265.25.262.664.383 1.25.36 1.219-.032 2.43-.067 3.64-.11 1.22-.05 2.446-.086 3.688-.109.227-.02.461-.047.703-.078a3.32 3.32 0 01.703-.016c.414.024.75.149 1 .375.25.219.383.54.407.953.039.399-.047.73-.266 1a1.436 1.436 0 01-.89.516 9.943 9.943 0 01-1.266.266c-.43.07-.86.117-1.297.14-1.262.008-2.524.035-3.781.078-1.25.051-2.508.07-3.766.063zm26.536.015c-.468.063-.851-.039-1.14-.296-.293-.25-.453-.586-.485-1.016-.117-.906-.218-1.805-.312-2.703a78.128 78.128 0 01-.235-2.735c-.03-.675-.086-1.156-.156-1.437-.062-.281-.242-.441-.531-.484-.293-.051-.781-.063-1.469-.032l-5.25.266c-.418.012-.734.121-.953.328-.21.211-.305.54-.281.984.02.907.031 1.81.031 2.704.008.886.063 1.796.156 2.734.04.418-.043.789-.25 1.11-.21.312-.558.5-1.047.562-.523.07-.918-.043-1.187-.344-.274-.3-.445-.687-.516-1.156a1.93 1.93 0 01-.078-.453 7.928 7.928 0 00-.047-.469l-.328-7.813h-.062v-7.578c0-.445.109-.82.328-1.125.219-.3.562-.476 1.031-.53.563-.04.973.1 1.234.421.258.312.41.715.454 1.203.03.742.05 1.48.062 2.219.008.742.023 1.484.047 2.234.039.649.098 1.106.172 1.375.07.274.25.434.531.485.281.043.738.054 1.375.03.883-.05 1.766-.1 2.64-.155a117.33 117.33 0 012.61-.157c.977-.02 1.41-.507 1.297-1.468a49.866 49.866 0 01-.266-3.797 7.96 7.96 0 01.016-.922c.031-.3.113-.602.25-.906.312-.657.816-.957 1.516-.907.582.075.992.414 1.234 1.016.039.094.066.203.078.328.008.125.023.242.047.344.101 2.687.191 5.371.266 8.047.082 2.68.285 5.36.609 8.047.008.125.008.28 0 .468-.024.461-.137.828-.344 1.11-.21.281-.558.437-1.047.468zm18.366-.5a1.453 1.453 0 01-.954.016 1.22 1.22 0 01-.703-.61 47.417 47.417 0 01-.89-1.656 15.274 15.274 0 01-.766-1.718c-.25-.625-.578-1.055-.984-1.297-.399-.25-.922-.305-1.578-.172-.23.023-.465.055-.704.094-.23.031-.46.039-.687.015-.961-.03-1.828.063-2.61.282a3.856 3.856 0 00-1.937 1.203c-.523.593-.867 1.433-1.031 2.515-.074.461-.278.82-.61 1.078-.324.258-.757.333-1.296.22-.461-.114-.782-.376-.97-.782-.187-.414-.167-.914.063-1.5a259.336 259.336 0 011.844-4.734c.625-1.57 1.25-3.149 1.875-4.735a90.7 90.7 0 011.156-2.703c.395-.894.692-1.832.89-2.812.103-.446.286-.844.548-1.188.258-.351.644-.55 1.156-.594.5-.03.89.11 1.172.422.281.305.516.672.703 1.11.957 2.023 1.91 4.046 2.86 6.078.956 2.031 1.906 4.07 2.843 6.11.207.417.41.85.61 1.296.207.437.406.871.593 1.297.094.21.172.418.235.625.07.21.133.375.187.5-.054.867-.39 1.414-1.015 1.64zm-9.86-8.421a4.23 4.23 0 001.719.14c.55-.07 1.098-.14 1.64-.203.282-.02.477-.113.594-.281.125-.164.114-.39-.03-.672-.282-.602-.56-1.207-.83-1.813a8.474 8.474 0 00-1.062-1.796 15.02 15.02 0 00-2.03 4.625zm35.158 8.421a1.453 1.453 0 01-.953.016 1.22 1.22 0 01-.703-.61 47.417 47.417 0 01-.89-1.656 15.274 15.274 0 01-.767-1.718c-.25-.625-.578-1.055-.984-1.297-.398-.25-.922-.305-1.578-.172-.23.023-.465.055-.703.094-.23.031-.461.039-.688.015-.96-.03-1.828.063-2.609.282a3.859 3.859 0 00-1.938 1.203c-.523.593-.867 1.433-1.03 2.515-.075.461-.278.82-.61 1.078-.324.258-.758.333-1.297.22-.46-.114-.781-.376-.969-.782-.187-.414-.168-.914.063-1.5a259.336 259.336 0 011.843-4.734c.625-1.57 1.25-3.149 1.875-4.735.375-.914.758-1.816 1.157-2.703.394-.894.691-1.832.89-2.812.102-.446.286-.844.547-1.188.258-.351.645-.55 1.156-.594.5-.03.891.11 1.172.422.282.305.516.672.703 1.11.958 2.023 1.91 4.046 2.86 6.078.957 2.031 1.906 4.07 2.844 6.11.207.417.41.85.609 1.296.207.437.406.871.594 1.297.093.21.172.418.234.625.07.21.133.375.188.5-.055.867-.391 1.414-1.016 1.64zm-9.86-8.421a4.23 4.23 0 001.72.14c.55-.07 1.097-.14 1.64-.203.281-.02.477-.113.594-.281.125-.164.113-.39-.032-.672a123.09 123.09 0 01-.828-1.813 8.474 8.474 0 00-1.062-1.796 15.02 15.02 0 00-2.031 4.625zm21.221 8.875c-.492.02-.86-.118-1.11-.407a2.185 2.185 0 01-.468-1.062 2.021 2.021 0 01-.125-.594 9.53 9.53 0 01-.016-.594c-.023-2.476-.047-4.957-.078-7.437-.023-2.477-.055-4.957-.094-7.438 0-.468.078-.879.235-1.234.164-.352.53-.578 1.093-.672.914-.113 1.489.484 1.72 1.797a26.05 26.05 0 01.265 4.25 75.412 75.412 0 00-.016 3.469v7.39c0 .149.004.305.016.47.008.155.004.32-.016.483-.055.981-.523 1.504-1.406 1.579zm3.97.531c-.45-.024-.813-.188-1.094-.5-.281-.305-.387-.735-.312-1.297.207-1.676.312-3.352.312-5.031v-5.032c.008-1.687.113-3.367.313-5.046.03-.239.054-.473.078-.704.02-.238.047-.472.078-.703.176-.695.61-1.117 1.297-1.265.363-.094.68-.07.953.062.27.125.5.32.687.578.164.23.313.48.438.75.125.262.238.524.344.782a22.648 22.648 0 002.437 4.812 221.206 221.206 0 012.953 4.484c.406-.019.66-.156.766-.406.101-.258.203-.5.297-.719a701.505 701.505 0 002.062-4.265l2.031-4.281c.164-.313.332-.63.5-.954.164-.32.336-.628.516-.921.219-.375.488-.672.813-.891.332-.219.707-.25 1.125-.094.425.106.734.336.921.688.196.343.301.734.313 1.172 0 .105.004.214.016.328.007.117.015.23.015.343a73.463 73.463 0 00.031 8.032c.164 2.68.391 5.36.672 8.047.07.648-.011 1.132-.25 1.468-.242.332-.605.52-1.093.563-.98.094-1.563-.516-1.75-1.828a227.014 227.014 0 01-.375-4 107.348 107.348 0 00-.391-4 13.03 13.03 0 01-.047-.828c0-.29-.137-.579-.406-.86a19.269 19.269 0 00-1.781 3.313c-.48 1.148-.946 2.304-1.391 3.468a9.16 9.16 0 00-.36 1.016c-.105.344-.23.672-.374.984-.325.563-.762.868-1.313.907-.555.043-1.016-.192-1.39-.703a5.956 5.956 0 01-.532-.922c-.137-.32-.273-.645-.406-.969a22.563 22.563 0 00-1.875-3.578 89.913 89.913 0 00-2.234-3.328c-.399.136-.586.343-.563.625.031.281.04.543.031.781a84.795 84.795 0 00-.187 3.437l-.094 3.47c-.023.261-.047.53-.078.812a9.99 9.99 0 01-.125.797c-.074.425-.234.77-.484 1.03-.243.27-.606.395-1.094.376zm35.547-.985a1.453 1.453 0 01-.953.016 1.22 1.22 0 01-.703-.61 47.417 47.417 0 01-.89-1.656 15.274 15.274 0 01-.766-1.718c-.25-.625-.578-1.055-.984-1.297-.399-.25-.922-.305-1.578-.172-.23.023-.465.055-.704.094-.23.031-.46.039-.687.015-.961-.03-1.828.063-2.61.282a3.856 3.856 0 00-1.937 1.203c-.523.593-.867 1.433-1.031 2.515-.074.461-.278.82-.61 1.078-.324.258-.757.333-1.296.22-.461-.114-.782-.376-.97-.782-.187-.414-.167-.914.063-1.5a259.336 259.336 0 011.844-4.734c.625-1.57 1.25-3.149 1.875-4.735a90.7 90.7 0 011.156-2.703c.395-.894.692-1.832.89-2.812a3.07 3.07 0 01.548-1.188c.258-.351.644-.55 1.156-.594.5-.03.89.11 1.172.422.281.305.516.672.703 1.11.957 2.023 1.91 4.046 2.86 6.078.956 2.031 1.906 4.07 2.843 6.11.207.417.41.85.61 1.296.207.437.406.871.593 1.297.094.21.172.418.235.625.07.21.132.375.187.5-.055.867-.39 1.414-1.015 1.64zm-9.859-8.421a4.23 4.23 0 001.719.14c.55-.07 1.098-.14 1.64-.203.282-.02.477-.113.594-.281.125-.164.114-.39-.031-.672-.281-.602-.559-1.207-.828-1.813a8.474 8.474 0 00-1.063-1.796 15.02 15.02 0 00-2.03 4.625zm17.972 7.578a7.031 7.031 0 01-3.422-1.047 7.759 7.759 0 01-2.578-2.594c-.656-1.082-1.012-2.289-1.063-3.625-.117-2.101.211-4.02.985-5.75.77-1.726 2.066-3.187 3.89-4.375 1.082-.707 2.157-1.078 3.219-1.11a6.05 6.05 0 012.969.626 7.836 7.836 0 012.406 1.843 8.155 8.155 0 011.547 2.5c.113.293.172.606.172.938 0 .418-.086.797-.25 1.14-.156.337-.461.547-.906.641-.47.106-.868.059-1.188-.14-.324-.207-.523-.532-.594-.97a3.85 3.85 0 00-.672-1.53 7.235 7.235 0 00-1.125-1.172c-.53-.446-1.105-.688-1.718-.719a4.006 4.006 0 00-1.828.328 5.321 5.321 0 00-2.047 1.64 8.531 8.531 0 00-1.813 5.22c0 .93.192 1.777.578 2.546.344.72.813 1.293 1.407 1.72a4.71 4.71 0 001.937.796 4.424 4.424 0 002.031-.156 3.903 3.903 0 001.735-1.172 6.15 6.15 0 00.328-.5c.113-.176.125-.375.031-.594-.094-.226-.242-.344-.437-.344h-.579a6.96 6.96 0 00-.796.047c-.274.024-.56.031-.86.031-1 .043-1.555-.378-1.656-1.265-.094-.54.004-.957.297-1.25.3-.29.687-.461 1.156-.516a10.81 10.81 0 011.422-.187c.476-.032.953-.055 1.422-.078v.03c.187-.019.379-.034.578-.046a5.97 5.97 0 01.61-.031c1.218-.04 2 .148 2.343.562.352.406.414 1.196.188 2.36-.387 1.992-1.274 3.546-2.657 4.671-1.375 1.118-3.062 1.625-5.062 1.532zm12.683 2.562c-.73-.054-1.312-.164-1.75-.328a1.64 1.64 0 01-.937-.812c-.2-.387-.336-.938-.406-1.657a92.242 92.242 0 01-.313-4.297 26.069 26.069 0 01.14-4.343 35.27 35.27 0 00.22-2.938c.038-.988.117-1.972.234-2.953.07-.656.187-1.156.344-1.5.164-.351.43-.617.796-.797.364-.176.852-.32 1.47-.437a14.3 14.3 0 012.718-.297c.914-.008 1.832-.031 2.75-.063h3.781c.488 0 .895.133 1.219.391.332.262.5.656.5 1.187.02.45-.133.805-.453 1.063-.324.25-.688.39-1.094.422-.906.043-1.82.07-2.734.078a123.1 123.1 0 00-2.703.062h-.938c-.324 0-.64.012-.953.032-.543.043-.945.101-1.203.172a.711.711 0 00-.5.468c-.074.23-.117.621-.125 1.172-.043.961-.074 1.703-.094 2.235-.023.53.008.921.094 1.171a.663.663 0 00.515.438c.25.043.614.059 1.094.047.477-.02 1.113-.024 1.906-.016.426.024.852.028 1.282.016.437-.02.875-.016 1.312.015 1.352.063 2 .579 1.938 1.547-.024.649-.243 1.047-.657 1.203a3.817 3.817 0 01-1.375.235 116 116 0 01-2.343.047 52.69 52.69 0 01-2.36-.016c-.523-.02-.93.078-1.218.297-.293.219-.43.61-.407 1.172 0 .305-.031.61-.093.922 0 .742.019 1.32.062 1.734.04.406.156.695.344.86.187.167.488.257.906.265.426.012 1.016-.02 1.766-.094.695-.07 1.394-.144 2.093-.218.707-.082 1.414-.16 2.125-.235 1.32-.07 2.032.371 2.125 1.328.102 1.051-.492 1.645-1.78 1.782-1.2.125-2.415.265-3.641.421a24.436 24.436 0 01-3.657.22zm13.326-.734c-.45-.024-.813-.188-1.094-.5-.281-.305-.387-.735-.312-1.297.207-1.676.312-3.352.312-5.031v-5.032c.008-1.687.113-3.367.313-5.046.03-.239.054-.473.078-.704.02-.238.047-.472.078-.703.176-.695.61-1.117 1.297-1.265.363-.094.68-.07.953.062.27.125.5.32.687.578.164.23.313.48.438.75.125.262.238.524.344.782a22.648 22.648 0 002.437 4.812 221.206 221.206 0 012.953 4.484c.406-.019.66-.156.766-.406.101-.258.203-.5.297-.719a701.505 701.505 0 002.062-4.265l2.031-4.281c.165-.313.332-.63.5-.954.165-.32.336-.628.516-.921.219-.375.488-.672.813-.891.332-.219.707-.25 1.125-.094.425.106.734.336.921.688.196.343.301.734.313 1.172 0 .105.004.214.016.328.007.117.015.23.015.343a73.463 73.463 0 00.031 8.032c.165 2.68.391 5.36.672 8.047.07.648-.011 1.132-.25 1.468-.242.332-.605.52-1.093.563-.98.094-1.563-.516-1.75-1.828a227.014 227.014 0 01-.375-4 107.348 107.348 0 00-.391-4 13.03 13.03 0 01-.047-.828c0-.29-.137-.579-.406-.86a19.269 19.269 0 00-1.781 3.313c-.48 1.148-.946 2.304-1.391 3.468a9.16 9.16 0 00-.36 1.016c-.105.344-.23.672-.374.984-.325.563-.762.868-1.313.907-.555.043-1.016-.192-1.39-.703a6.038 6.038 0 01-.532-.922c-.137-.32-.273-.645-.406-.969a22.563 22.563 0 00-1.875-3.578 89.913 89.913 0 00-2.234-3.328c-.399.136-.586.343-.563.625.031.281.04.543.031.781a84.795 84.795 0 00-.187 3.437l-.094 3.47c-.023.261-.047.53-.078.812a9.99 9.99 0 01-.125.797c-.074.425-.234.77-.484 1.03-.243.27-.606.395-1.094.376zm29.107-.625c-.555.082-.977-.024-1.266-.313-.293-.289-.445-.691-.453-1.203a36.501 36.501 0 01-.156-2.703c-.012-.914-.028-1.828-.047-2.734a11.17 11.17 0 01-.016-1.078c.008-.352.016-.707.016-1.063h-.14v-6.14c0-.633.05-1.126.155-1.47a1.36 1.36 0 01.625-.812c.32-.187.786-.347 1.391-.484a17.867 17.867 0 013.188-.36c1.05-.019 2.117.086 3.203.313 2.644.594 4.175 2.266 4.593 5.016.32 2.273-.71 4.054-3.093 5.343-.75.438-1.547.782-2.39 1.032-.837.242-1.685.445-2.548.609-.637.125-1.09.25-1.36.375a.818.818 0 00-.468.64c-.043.305-.062.79-.062 1.454 0 .324.007.648.03.968.02.313.032.633.032.954.02.418-.059.793-.234 1.125-.18.32-.512.5-1 .53zm1.125-9.828c0 .281.07.5.218.656.157.148.375.195.657.14a20.826 20.826 0 002.734-.578 7.492 7.492 0 002.5-1.28c.488-.376.754-.786.797-1.235.05-.457-.043-.945-.281-1.469-.344-.676-.793-1.101-1.344-1.281a5.952 5.952 0 00-1.813-.297c-1.074-.04-1.867-.04-2.375 0-.511.031-.84.152-.984.36-.137.21-.187.542-.156 1 .031.46.047 1.085.047 1.874 0 .356-.008.711-.016 1.063-.012.344-.008.695.016 1.047zm24.726 9.468a1.453 1.453 0 01-.953.016 1.22 1.22 0 01-.704-.61 47.417 47.417 0 01-.89-1.656 15.274 15.274 0 01-.766-1.718c-.25-.625-.578-1.055-.984-1.297-.399-.25-.922-.305-1.578-.172-.23.023-.465.055-.703.094-.23.031-.461.039-.688.015-.96-.03-1.828.063-2.61.282a3.856 3.856 0 00-1.937 1.203c-.523.593-.867 1.433-1.031 2.515-.074.461-.277.82-.61 1.078-.324.258-.757.333-1.296.22-.461-.114-.782-.376-.97-.782-.187-.414-.167-.914.063-1.5a259.336 259.336 0 011.844-4.734c.625-1.57 1.25-3.149 1.875-4.735a90.7 90.7 0 011.156-2.703c.395-.894.692-1.832.891-2.812.102-.446.285-.844.547-1.188.258-.351.644-.55 1.156-.594.5-.03.89.11 1.172.422.281.305.516.672.703 1.11.957 2.023 1.91 4.046 2.86 6.078.957 2.031 1.906 4.07 2.843 6.11.207.417.41.85.61 1.296.207.437.406.871.593 1.297.094.21.172.418.235.625.07.21.133.375.187.5-.054.867-.39 1.414-1.015 1.64zm-9.86-8.421a4.23 4.23 0 001.719.14c.55-.07 1.098-.14 1.64-.203.282-.02.477-.113.594-.281.125-.164.114-.39-.03-.672a98.233 98.233 0 01-.829-1.813 8.474 8.474 0 00-1.062-1.796 15.02 15.02 0 00-2.032 4.625zm14.49 10.171c-.532.02-.922-.117-1.172-.406-.25-.281-.387-.683-.406-1.203-.043-1.164-.09-2.344-.141-3.531a386.115 386.115 0 01-.11-3.547 111.476 111.476 0 01-.015-3.422 10.114 10.114 0 00-.531-3.39c-.188-.52-.137-.973.156-1.36a3.345 3.345 0 011.062-.922 15.42 15.42 0 014.079-1.469c1.394-.28 2.832-.187 4.312.282 1.125.367 2.023.886 2.703 1.562.676.668 1.125 1.43 1.344 2.281.219.844.176 1.72-.125 2.625-.305.899-.875 1.743-1.719 2.532a6.753 6.753 0 01-.906.781c-.324.242-.652.512-.984.812.675.7 1.32 1.387 1.937 2.063a61.34 61.34 0 001.89 1.969c.395.355.68.726.86 1.11.176.386.11.835-.203 1.343-.23.351-.59.531-1.078.531-.492 0-.98-.187-1.469-.562a34.54 34.54 0 01-1.562-1.422 74.35 74.35 0 00-1.532-1.453l-.953-.922a13.97 13.97 0 00-.969-.875c-.449-.375-.902-.5-1.359-.375-.46.117-.906.25-1.344.406-.242.074-.39.203-.453.39a1.64 1.64 0 00-.047.626c.032.218.047.433.047.64a25.53 25.53 0 00.016 1.656c.031.555.035 1.11.015 1.672 0 .426-.101.79-.296 1.094-.2.3-.547.461-1.047.484zm1.265-12.796v.718c0 .243.008.47.032.688.03.742.14 1.195.328 1.36.187.167.617.167 1.297 0a15.609 15.609 0 002.343-.798 6.94 6.94 0 002.032-1.375c.8-.77 1.128-1.484.984-2.14-.137-.657-.719-1.172-1.75-1.547a9.369 9.369 0 00-.922-.235 4.018 4.018 0 00-.906-.109c-.98-.031-1.727.04-2.235.203-.5.168-.84.508-1.015 1.016-.168.5-.23 1.242-.188 2.219zm27.995 11.046a1.453 1.453 0 01-.953.016 1.22 1.22 0 01-.703-.61 47.417 47.417 0 01-.89-1.656 15.274 15.274 0 01-.766-1.718c-.25-.625-.578-1.055-.984-1.297-.399-.25-.922-.305-1.578-.172-.23.023-.465.055-.704.094-.23.031-.46.039-.687.015-.961-.03-1.828.063-2.61.282a3.856 3.856 0 00-1.937 1.203c-.523.593-.867 1.433-1.031 2.515-.074.461-.278.82-.61 1.078-.324.258-.757.333-1.296.22-.461-.114-.782-.376-.97-.782-.187-.414-.167-.914.063-1.5a259.336 259.336 0 011.844-4.734c.625-1.57 1.25-3.149 1.875-4.735a90.7 90.7 0 011.156-2.703c.395-.894.692-1.832.89-2.812a3.07 3.07 0 01.548-1.188c.258-.351.644-.55 1.156-.594.5-.03.89.11 1.172.422.281.305.516.672.703 1.11.957 2.023 1.91 4.046 2.86 6.078.956 2.031 1.906 4.07 2.843 6.11.207.417.41.85.61 1.296.207.437.406.871.593 1.297.094.21.172.418.235.625.07.21.132.375.187.5-.055.867-.39 1.414-1.015 1.64zm-9.859-8.421a4.23 4.23 0 001.719.14c.55-.07 1.098-.14 1.64-.203.282-.02.477-.113.594-.281.125-.164.114-.39-.031-.672-.281-.602-.559-1.207-.828-1.813a8.474 8.474 0 00-1.063-1.796 15.02 15.02 0 00-2.03 4.625zm22.767 10.14c-.73-.054-1.312-.164-1.75-.328a1.64 1.64 0 01-.937-.812c-.2-.387-.336-.938-.406-1.657a92.242 92.242 0 01-.313-4.297 26.069 26.069 0 01.14-4.343 35.27 35.27 0 00.22-2.938c.039-.988.117-1.972.234-2.953.07-.656.187-1.156.344-1.5.164-.351.43-.617.796-.797.364-.176.852-.32 1.47-.437a14.3 14.3 0 012.718-.297c.914-.008 1.832-.031 2.75-.063h3.781c.488 0 .895.133 1.219.391.332.262.5.656.5 1.187.02.45-.133.805-.453 1.063-.324.25-.688.39-1.094.422-.906.043-1.82.07-2.734.078a123.1 123.1 0 00-2.703.062h-.938c-.324 0-.64.012-.953.032-.543.043-.945.101-1.203.172a.711.711 0 00-.5.468c-.074.23-.117.621-.125 1.172-.043.961-.074 1.703-.094 2.235-.023.53.008.921.094 1.171a.663.663 0 00.515.438c.25.043.614.059 1.094.047.477-.02 1.113-.024 1.906-.016.426.024.852.028 1.282.016.437-.02.875-.016 1.312.015 1.352.063 2 .579 1.938 1.547-.024.649-.242 1.047-.657 1.203a3.817 3.817 0 01-1.375.235 116 116 0 01-2.343.047 52.69 52.69 0 01-2.36-.016c-.523-.02-.93.078-1.218.297-.293.219-.43.61-.407 1.172 0 .305-.03.61-.093.922 0 .742.02 1.32.062 1.734.04.406.156.695.344.86.187.167.488.257.906.265.426.012 1.016-.02 1.766-.094.695-.07 1.394-.144 2.093-.218.707-.082 1.415-.16 2.125-.235 1.32-.07 2.032.371 2.125 1.328.102 1.051-.492 1.645-1.78 1.782-1.2.125-2.415.265-3.641.421a24.436 24.436 0 01-3.657.22zm15.013-2.203c-.304.211-.62.215-.953.016a1.928 1.928 0 01-.734-.86 3.936 3.936 0 01-.266-1.14 36.112 36.112 0 01-.078-1.172 472.14 472.14 0 01-.14-4.719 47.464 47.464 0 00-.329-4.719l-.187-1.39a9.083 9.083 0 00-.266-1.36c-.23-.77-.215-1.351.047-1.75.27-.394.781-.64 1.531-.734.426-.05.852-.082 1.282-.094.437-.008.875-.023 1.312-.047 1.082 0 2.14.086 3.172.25 1.04.157 2.078.422 3.11.797 1.8.68 3.16 1.696 4.078 3.047.925 1.344 1.347 2.984 1.265 4.922-.094 2.387-.855 4.309-2.281 5.766-1.43 1.449-3.34 2.277-5.734 2.484a12.17 12.17 0 01-1.641.016 7.631 7.631 0 00-1.61.078c-.523.074-1.046.277-1.578.61zm.563-13.312c.07 1.218.144 2.433.219 3.64.082 1.2.16 2.406.234 3.625.063.711.156 1.242.281 1.594.133.344.39.57.766.672.375.105.957.148 1.75.125.281-.07.625-.125 1.031-.156.414-.04.832-.11 1.25-.204 1.05-.269 1.883-.796 2.5-1.578.625-.789.988-1.75 1.094-2.875.133-1.28.008-2.351-.375-3.218-.387-.864-1.059-1.52-2.016-1.97a13.934 13.934 0 00-2.515-.89 10.696 10.696 0 00-2.688-.344c-.512 0-.883.028-1.11.079-.218.043-.35.171-.39.39-.043.211-.055.578-.031 1.11zm15.303 14.25c-.492.02-.859-.118-1.109-.407a2.185 2.185 0 01-.469-1.062 2.021 2.021 0 01-.125-.594 9.53 9.53 0 01-.015-.594c-.024-2.476-.047-4.957-.078-7.437-.024-2.477-.055-4.957-.094-7.438 0-.468.078-.879.234-1.234.164-.352.531-.578 1.094-.672.914-.113 1.488.484 1.719 1.797.207 1.45.297 2.867.265 4.25a75.412 75.412 0 00-.015 3.469v7.39c0 .149.004.305.015.47.008.155.004.32-.015.483-.055.981-.524 1.504-1.407 1.579zm10.955-1.156a1.315 1.315 0 01-.907-.25 1.43 1.43 0 01-.5-.735 4.477 4.477 0 01-.218-1.078 16.896 16.896 0 01-.032-1.063c-.023-1.5-.062-2.988-.125-4.468a99.034 99.034 0 00-.265-4.516c-.024-.602-.164-1.031-.422-1.281-.25-.258-.68-.352-1.281-.282a12.41 12.41 0 01-1.532.157c-.5.011-1.011.027-1.53.047-.438 0-.813-.102-1.126-.313-.305-.207-.465-.55-.484-1.031-.024-.926.437-1.461 1.375-1.61 1.426-.164 2.843-.304 4.25-.421a85.62 85.62 0 014.265-.235h2.344c.8-.008 1.586-.008 2.36 0 .28 0 .562.008.843.016.281.012.551.039.813.078.414.055.738.195.968.422.239.219.36.547.36.984 0 .469-.137.836-.406 1.094-.274.262-.633.414-1.079.453-.625.024-1.261.031-1.906.031h-1.906c-.773 0-1.355.012-1.75.032-.387.011-.656.093-.813.25-.148.148-.218.414-.218.796 0 .387.004.95.015 1.688.082 1.437.149 2.89.203 4.36.063 1.468.118 2.921.172 4.359 0 .21.008.406.032.593.02.188.007.387-.032.594-.156.844-.648 1.29-1.468 1.328zm22.731.702a1.453 1.453 0 01-.953.016 1.22 1.22 0 01-.704-.61 47.417 47.417 0 01-.89-1.656 15.274 15.274 0 01-.766-1.718c-.25-.625-.578-1.055-.984-1.297-.399-.25-.922-.305-1.578-.172-.23.023-.465.055-.703.094-.23.031-.461.039-.688.015-.96-.03-1.828.063-2.61.282a3.856 3.856 0 00-1.937 1.203c-.523.593-.867 1.433-1.031 2.515-.074.461-.277.82-.61 1.078-.324.258-.757.333-1.296.22-.461-.114-.782-.376-.969-.782-.188-.414-.168-.914.062-1.5a259.336 259.336 0 011.844-4.734c.625-1.57 1.25-3.149 1.875-4.735a90.7 90.7 0 011.156-2.703c.395-.894.692-1.832.891-2.812.102-.446.285-.844.547-1.188.258-.351.645-.55 1.156-.594.5-.03.89.11 1.172.422.281.305.516.672.703 1.11.957 2.023 1.91 4.046 2.86 6.078.957 2.031 1.906 4.07 2.843 6.11.207.417.41.85.61 1.296.207.437.406.871.593 1.297.094.21.172.418.235.625.07.21.133.375.187.5-.054.867-.39 1.414-1.015 1.64zm-9.86-8.421a4.23 4.23 0 001.72.14c.55-.07 1.097-.14 1.64-.203.281-.02.476-.113.593-.281.125-.164.114-.39-.03-.672a98.233 98.233 0 01-.829-1.813 8.474 8.474 0 00-1.062-1.796 15.02 15.02 0 00-2.032 4.625zm14.49 10.171c-.532.02-.922-.117-1.172-.406-.25-.281-.387-.683-.406-1.203-.043-1.164-.09-2.344-.141-3.531a386.115 386.115 0 01-.11-3.547 111.476 111.476 0 01-.015-3.422 10.114 10.114 0 00-.531-3.39c-.188-.52-.137-.973.156-1.36a3.355 3.355 0 011.062-.922 15.42 15.42 0 014.079-1.469c1.394-.28 2.832-.187 4.312.282 1.125.367 2.024.886 2.703 1.562.676.668 1.125 1.43 1.344 2.281.219.844.176 1.72-.125 2.625-.305.899-.875 1.743-1.719 2.532a6.753 6.753 0 01-.906.781c-.324.242-.652.512-.984.812.675.7 1.32 1.387 1.937 2.063a61.34 61.34 0 001.89 1.969c.395.355.68.726.86 1.11.176.386.11.835-.203 1.343-.23.351-.59.531-1.078.531-.492 0-.98-.187-1.469-.562a34.54 34.54 0 01-1.562-1.422 74.35 74.35 0 00-1.532-1.453l-.953-.922a13.97 13.97 0 00-.969-.875c-.449-.375-.902-.5-1.359-.375-.46.117-.906.25-1.344.406-.242.074-.39.203-.453.39a1.66 1.66 0 00-.047.626c.032.218.047.433.047.64-.011.543-.008 1.094.016 1.656.031.555.035 1.11.015 1.672 0 .426-.101.79-.296 1.094-.2.3-.547.461-1.047.484zm1.265-12.796v.718c0 .243.008.47.032.688.03.742.14 1.195.328 1.36.187.167.617.167 1.297 0a15.609 15.609 0 002.343-.798 6.94 6.94 0 002.032-1.375c.8-.77 1.129-1.484.984-2.14-.137-.657-.719-1.172-1.75-1.547a9.369 9.369 0 00-.922-.235 4.018 4.018 0 00-.906-.109c-.98-.031-1.727.04-2.235.203-.5.168-.84.508-1.015 1.016-.168.5-.23 1.242-.188 2.219zm0 0" fill="#d9d9d9"/></svg>